Coordinates
version=1
nRows=14
nColumns=33
inDegrees=yes

Units are S.I. units (second, meters, Newtons, ...)
Angles are in degrees.

endheader
time	ground_thorax_rot_x	ground_thorax_rot_y	ground_thorax_rot_z	ground_thorax_tx	ground_thorax_ty	ground_thorax_tz	clav_prot_r	clav_elev_r	scapula_abduction_r	scapula_elevation_r	scapula_upward_rot_r	scapula_winging_r	shoulder_elv_r	plane_of_elev_r	axial_rot_r	elbow_flexion_r	pro_sup_r	wrist_flex_r	wrist_dev_r	clav_prot_l	clav_elev_l	scapula_abduction_l	scapula_elevation_l	scapula_upward_rot_l	scapula_winging_l	shoulder_elv_l	plane_of_elev_l	axial_rot_l	elbow_flexion_l	pro_sup_l	wrist_flex_l	wrist_dev_l
     11.81000000	     90.00000000	    -90.00000000	    -90.00000000	   -103.72028614	    821.78123348	    -39.79923495	    -45.00000000	     -4.44345185	    -31.94738003	     10.48840516	    -45.00000000	  -2628.72630888	  -1688.24472177	     34.02343099	    -22.72791192	   1079.37107699	    159.36069186	     12.61322753	     15.27611063	      6.61029217	     45.00000000	    -45.00000000	    -45.00000000	      6.52210208	  -4291.49208519	  -2569.99762471	    135.21916494	   -179.99999979	   1070.72497961	    443.60568191	      8.27927764	     -8.16689979
     11.82000000	     90.00000000	    -90.00000000	    -90.00000000	   -105.28231575	    824.07177345	    -39.90832595	    -45.00000000	     -4.77865530	    -31.75285977	     10.24489897	    -45.00000000	  -2628.76727406	  -1688.08104498	     34.06500926	    -22.59246012	   1079.34417071	    158.66835079	     12.63254938	     15.29949858	      6.45082650	     45.00000000	    -45.00000000	    -45.00000000	      6.50615377	  -4291.69999385	  -2570.00272050	    135.21045500	   -179.99999979	   1070.62699212	    442.77959861	      8.31698086	     -8.11192526
     11.83000000	     90.00000000	    -90.00000000	    -90.00000000	   -106.75603929	    826.33153183	    -40.02974464	    -45.00000000	     -4.95600746	    -31.58610552	     10.05913623	    -45.00000000	  -2628.74546940	  -1688.00133021	     34.07168281	    -22.50152804	   1079.26863188	    157.99598454	     12.66241227	     15.31712058	      6.28482916	     45.00000000	    -45.00000000	    -45.00000000	      6.46284985	  -4291.90111401	  -2569.99388468	    135.17508672	   -179.99999979	   1070.52667507	    441.84773204	      8.32794345	     -8.05907793
     11.84000000	     90.00000000	    -90.00000000	    -90.00000000	   -108.14283341	    828.55146699	    -40.16922745	    -45.00000000	     -5.10211342	    -31.48170314	      9.84476686	    -45.00000000	  -2628.71711671	  -1687.96358104	     34.06888698	    -22.40908447	   1079.21207072	    157.34240336	     12.68526173	     15.31703629	      6.11676889	     45.00000000	    -45.00000000	    -45.00000000	      6.42829705	  -4292.07392085	  -2569.98461832	    135.18538690	   -179.99999979	   1070.41432359	    440.82262739	      8.31603131	     -7.97760888
     11.85000000	     90.00000000	    -90.00000000	    -90.00000000	   -109.43826025	    830.71022005	    -40.33083205	    -45.00000000	     -5.24156297	    -31.36734627	      9.65959690	    -45.00000000	  -2628.68474541	  -1687.91113160	     34.06207923	    -22.35537719	   1079.14530326	    156.72014109	     12.70934887	     15.31802786	      5.96640940	     45.00000000	    -45.00000000	    -45.00000000	      6.39991373	  -4292.25501826	  -2569.98248905	    135.14395555	   -179.99999979	   1070.29986952	    439.72397623	      8.28821491	     -7.90038193
     11.86000000	     90.00000000	    -90.00000000	    -90.00000000	   -110.64983764	    832.80293469	    -40.51629506	    -45.00000000	     -5.41450878	    -31.25203842	      9.46513889	    -45.00000000	  -2628.67329842	  -1687.86527985	     34.05687695	    -22.32026156	   1079.07761168	    156.12923407	     12.74886060	     15.31807078	      5.81998655	     45.00000000	    -45.00000000	    -45.00000000	      6.35961677	  -4292.44143173	  -2569.98464303	    135.15319058	   -179.99999979	   1070.18655560	    438.58320809	      8.24756497	     -7.82262461
     11.87000000	     90.00000000	    -90.00000000	    -90.00000000	   -111.77831611	    834.81414454	    -40.72350738	    -45.00000000	     -5.54660748	    -31.13640176	      9.33111455	    -45.00000000	  -2628.64051462	  -1687.83947143	     34.04782919	    -22.31688047	   1078.97608281	    155.56574313	     12.79360904	     15.32058936	      5.68033154	     45.00000000	    -45.00000000	    -45.00000000	      6.33517395	  -4292.62867363	  -2569.99277771	    135.13830567	   -179.99999979	   1070.08091618	    437.41700082	      8.19078616	     -7.74598768
     11.88000000	     90.00000000	    -90.00000000	    -90.00000000	   -112.82846681	    836.73564775	    -40.94660802	    -45.00000000	     -5.51335965	    -31.04649316	      9.23335532	    -45.00000000	  -2628.56204950	  -1687.78671999	     34.00631692	    -22.28100147	   1078.92144890	    155.01396704	     12.78910074	     15.32147605	      5.53851952	     45.00000000	    -45.00000000	    -45.00000000	      6.30934785	  -4292.77692976	  -2570.03099952	    135.06720168	   -179.99999979	   1069.95473935	    436.18444120	      8.11801963	     -7.65984110
     11.89000000	     90.00000000	    -90.00000000	    -90.00000000	   -113.80303080	    838.55951720	    -41.17709741	    -45.00000000	     -5.66824011	    -30.99749222	      9.02703444	    -45.00000000	  -2628.56610364	  -1687.74969031	     33.99652897	    -22.25520850	   1078.89023425	    154.48564047	     12.80026382	     15.31183920	      5.41791354	     45.00000000	    -45.00000000	    -45.00000000	      6.30753777	  -4292.92246917	  -2570.04199646	    135.11695763	   -179.99999979	   1069.81670221	    434.96146327	      8.04516660	     -7.58383928
     11.90000000	     90.00000000	    -90.00000000	    -90.00000000	   -114.70155605	    840.27430206	    -41.40399387	    -45.00000000	     -5.61738788	    -30.94218205	      8.92026350	    -45.00000000	  -2628.49523490	  -1687.72928060	     33.95836321	    -22.22694484	   1078.85757640	    153.96552609	     12.79293149	     15.29865336	      5.29187421	     45.00000000	    -45.00000000	    -45.00000000	      6.25929067	  -4293.06984138	  -2570.03894366	    135.11513205	   -179.99999979	   1069.69611785	    433.68096536	      7.95052445	     -7.52540409
     11.91000000	     90.00000000	    -90.00000000	    -90.00000000	   -115.52395873	    841.87349620	    -41.61766395	    -45.00000000	     -5.99957474	    -30.81451823	      8.78902729	    -45.00000000	  -2628.56771407	  -1687.72184894	     33.99726664	    -22.29250910	   1078.69184953	    153.50884212	     12.87186845	     15.28591377	      5.21196120	     45.00000000	    -45.00000000	    -45.00000000	      6.23580959	  -4293.28358255	  -2570.06715262	    135.16343607	   -179.99999979	   1069.61041801	    432.53690004	      7.86970391	     -7.52145338
     11.92000000	     90.00000000	    -90.00000000	    -90.00000000	   -116.26898659	    843.34912402	    -41.81017295	    -45.00000000	     -6.46345878	    -30.70972189	      8.51788266	    -45.00000000	  -2628.76451605	  -1687.59674684	     34.03352490	    -22.29307216	   1078.81439185	    153.13443036	     12.98245190	     15.19138642	      5.11500574	     45.00000000	    -45.00000000	    -45.00000000	      5.94783992	  -4293.70997135	  -2569.91245853	    135.64176585	   -179.99999979	   1069.64222318	    431.59527716	      7.78781520	     -7.71877425
     11.93000000	     90.00000000	    -90.00000000	    -90.00000000	   -116.93497446	    844.69362656	    -41.97678917	    -45.00000000	     -6.06065763	    -30.77707569	      8.55868024	    -45.00000000	  -2628.50761065	  -1687.57122056	     33.97735358	    -22.26796983	   1078.72833636	    152.84043556	     12.80863063	     15.21875767	      5.05430003	     45.00000000	    -45.00000000	    -45.00000000	      6.30481203	  -4293.32933363	  -2570.23611483	    135.01382630	   -179.99999979	   1069.39740214	    430.70949987	      7.72688650	     -7.49847165
     11.94000000	     90.00000000	    -90.00000000	    -90.00000000	   -117.51830358	    845.89358671	    -42.11492509	    -45.00000000	     -6.09635723	    -30.66242628	      8.53580792	    -45.00000000	  -2628.49512022	  -1687.67105610	     33.98073694	    -22.29442863	   1078.53681313	    152.44574401	     12.98910727	     15.17487282	      4.93753352	     45.00000000	    -45.00000000	    -45.00000000	      6.13396736	  -4293.71066706	  -2570.08229689	    135.36191737	   -179.99999979	   1069.32895580	    429.64490398	      7.65280307	     -7.69340671
